<svg xmlns="http://www.w3.org/2000/svg" xmlns:xlink="http://www.w3.org/1999/xlink" width="24" height="24" viewBox="0 0 24 24">
  <defs>
    <style>
      .cls-1 {
        fill: #888686;
        fill-rule: evenodd;
        filter: url(#filter);
      }
    </style>
    <filter id="filter" x="429" y="852" width="24" height="24" filterUnits="userSpaceOnUse">
      <feFlood result="flood" flood-color="#ff9e01"/>
      <feComposite result="composite" operator="in" in2="SourceGraphic"/>
      <feBlend result="blend" in2="SourceGraphic"/>
    </filter>
  </defs>
  <path id="Forma_1" data-name="Forma 1" class="cls-1" d="M445.444,852a7.549,7.549,0,0,0-7.555,7.555,9.3,9.3,0,0,0,.444,2.667L429,871.555V876h4.444v-2.667h2.667v-2.667h2.666l4-4a8.365,8.365,0,0,0,2.666.445A7.556,7.556,0,1,0,445.444,852Zm2.222,8a2.667,2.667,0,1,1,2.667-2.667A2.619,2.619,0,0,1,447.666,860Z" transform="translate(-429 -852)"/>
</svg>
